# xmcd
#
# Track frame offsets:
# 150
# 16245
# 28935
# 42725
# 56660
# 67997
# 78242
# 89965
# 102672
# 116270
# 133480
# 145737
# 157332
# 169852
# 182747
# 195282
# 207505
# 221550
# 231482
# 242817
#
# Disc length: 3396 seconds
#
#
# Revision: 0
# Processed by: cddbd v1.5.2PL0 Copyright (c) Steve Scherf et al.
# Submitted via: FreeRIP 2.951 
#
DISCID=350d4214
DTITLE=Gilberto and Gilmar - Gilberto and Gilmar - Raízes Sertanejas Volume 2
DYEAR=1900
DGENRE=Sertanejo
TTITLE0=Parede do destino
TTITLE1=Casal liberal
TTITLE2=O último por-do-sol
TTITLE3=Desabafo
TTITLE4=Proposta
TTITLE5=Onde está você
TTITLE6=Um, dois, três
TTITLE7=Muito pra minha cabeça
TTITLE8=Amor, amor, amor
TTITLE9=Por amor
TTITLE10=Cabeça pesada
TTITLE11=Cheiro de mulher
TTITLE12=Vou buscar Rosana
TTITLE13=Mulher malvada
TTITLE14=Estou enrolado
TTITLE15=A saudade me mata aos poucos
TTITLE16=Homem pássaro
TTITLE17=Sou Brasileiro, por que não?
TTITLE18=Deslizes de amor
TTITLE19=Dama da noite
EXTD=
EXTT0=
EXTT1=
EXTT2=
EXTT3=
EXTT4=
EXTT5=
EXTT6=
EXTT7=
EXTT8=
EXTT9=
EXTT10=
EXTT11=
EXTT12=
EXTT13=
EXTT14=
EXTT15=
EXTT16=
EXTT17=
EXTT18=
EXTT19=
PLAYORDER=
